<svg width="96" height="97" viewBox="0 0 96 97" fill="none" xmlns="http://www.w3.org/2000/svg">
<g filter="url(#filter0_d_44_313)">
<rect x="20" y="18.9756" width="56" height="56" rx="8" fill="white" shape-rendering="crispEdges"/>
<path d="M49.544 45.4315C48.7249 44.6128 47.6141 44.1528 46.456 44.1528C45.2978 44.1528 44.1871 44.6128 43.368 45.4315L40.279 48.5195C39.4599 49.3387 38.9997 50.4496 38.9997 51.608C38.9997 52.7665 39.4599 53.8774 40.279 54.6965C41.0981 55.5157 42.2091 55.9758 43.3675 55.9758C44.5259 55.9758 45.6369 55.5157 46.456 54.6965L48 53.1525" stroke="black" stroke-width="2" stroke-linecap="round" stroke-linejoin="round"/>
<path d="M46.456 48.5196C47.2751 49.3384 48.3858 49.7984 49.544 49.7984C50.7021 49.7984 51.8129 49.3384 52.632 48.5196L55.721 45.4316C56.5401 44.6125 57.0003 43.5016 57.0003 42.3431C57.0003 41.1847 56.5401 40.0738 55.721 39.2546C54.9019 38.4355 53.7909 37.9753 52.6325 37.9753C51.4741 37.9753 50.3631 38.4355 49.544 39.2546L48 40.7986" stroke="black" stroke-width="2" stroke-linecap="round" stroke-linejoin="round"/>
</g>
<defs>
<filter id="filter0_d_44_313" x="0" y="0.975586" width="96" height="96" filterUnits="userSpaceOnUse" color-interpolation-filters="sRGB">
<feFlood flood-opacity="0" result="BackgroundImageFix"/>
<feColorMatrix in="SourceAlpha" type="matrix" values="0 0 0 0 0 0 0 0 0 0 0 0 0 0 0 0 0 0 127 0" result="hardAlpha"/>
<feOffset dy="2"/>
<feGaussianBlur stdDeviation="10"/>
<feComposite in2="hardAlpha" operator="out"/>
<feColorMatrix type="matrix" values="0 0 0 0 0 0 0 0 0 0 0 0 0 0 0 0 0 0 0.05 0"/>
<feBlend mode="normal" in2="BackgroundImageFix" result="effect1_dropShadow_44_313"/>
<feBlend mode="normal" in="SourceGraphic" in2="effect1_dropShadow_44_313" result="shape"/>
</filter>
</defs>
</svg>
